<?xml version="1.0" encoding="UTF-8"?>
<svg xmlns="http://www.w3.org/2000/svg" viewBox="0 0 512 512" width="512" height="512"><g id="Outline"><path d="M72,347V303.5A64.1,64.1,0,0,1,16,240V224a8,8,0,0,1,13.657-5.657L43.313,232h26.8a36.9,36.9,0,0,1,25.87,10.568A36.746,36.746,0,0,1,121.89,232h34.8l13.656-13.657A8,8,0,0,1,184,224v16a64.082,64.082,0,0,1-60.61,63.911l14.638,40.255a48.357,48.357,0,0,0,87.315,7.672l83.81-145.061,13.854,8L239.2,359.842a64.357,64.357,0,0,1-116.2-10.208l-18.51-50.9A8,8,0,0,1,112,288h8a48.063,48.063,0,0,0,47.878-44.564l-2.221,2.221A8,8,0,0,1,160,248H121.89a20.825,20.825,0,0,0-18.734,11.575,8,8,0,0,1-14.311,0A20.928,20.928,0,0,0,70.11,248H40a8,8,0,0,1-5.657-2.343l-2.221-2.221A48.063,48.063,0,0,0,80,288a8,8,0,0,1,8,8v51ZM480.356,32.468A78.8,78.8,0,0,1,496,79.42V182H480V79.42a62.691,62.691,0,0,0-12.452-37.362,24.878,24.878,0,0,0-1.808-2.149l-8.426,19.152c9.3,34.168,15.2,87.281,15.811,142.85A809.73,809.73,0,0,1,468,304.728a251.237,251.237,0,0,0,12-76.8V200h16v27.93a267.844,267.844,0,0,1-39.074,139.337c-.057.229-.113.463-.17.692l-.21-.053c-.044.072-.085.145-.129.216-.05.088-.1.175-.153.262a267.447,267.447,0,0,1-66.424,73.145A312.536,312.536,0,0,1,392,478.111a17.889,17.889,0,0,1-33.888,8l-22.8-45.6q-6,10.692-12.664,20.988c.648-.263,1.305-.511,1.95-.779l6.136,14.775A269.988,269.988,0,0,1,227.93,496H209.81A137.8,137.8,0,0,1,72.187,365.354l15.978-.831A121.817,121.817,0,0,0,209.81,480h18.12a251.556,251.556,0,0,0,69.228-9.709,370.8,370.8,0,0,0,29.415-47.256l-18.641-37.282a28.656,28.656,0,0,1-5.4.52c-15.352,0-27.547-11.971-28.192-12.616l11.289-11.339c.089.088,6.714,6.485,14.43,7.7l-11.217-22.436,14.31-7.156,69.267,138.534a1.889,1.889,0,0,0,3.578-.845,292.979,292.979,0,0,0-23.82-116.049l-23.534-54.911,14.708-6.3,15.358,35.836a370.01,370.01,0,0,0,9.288-64.9V224a7.988,7.988,0,0,1,.678-3.223l27.269-61.951c.032-.08.066-.159.1-.238L451.584,32.354A25.141,25.141,0,0,0,447.42,32a32.58,32.58,0,0,0-28.209,16.275L410.125,64H424V80H408V67.679l-24,41.538V120h-6.23l-46.879,81.137-13.854-8L405.354,40.278C413.711,25.775,431,16,447.421,16A41.456,41.456,0,0,1,480.356,32.468ZM376.709,381.881a620.013,620.013,0,0,0,21.155-187.694L384,225.683V272c0,.141,0,.281-.011.422a385.446,385.446,0,0,1-15.074,88.236Q373.21,371.166,376.709,381.881Zm25.567,28.033c23.96-88.7,27.292-165,25.869-213.394a577.748,577.748,0,0,0-4.794-60.26l-11.784,26.784c2.829,25.087,11.3,129.976-26.882,248,.9,4.069,1.74,8.15,2.475,12.253q7.837-6.387,15.152-13.37Zm44.28-326.4L435.1,109.56c1.461,6.764,7.561,37.537,9.024,85.948,1.337,44.235-1.209,111.234-19.193,189.667a254.4,254.4,0,0,0,17.052-24.127C462.071,278.475,460.748,155.821,446.556,83.515ZM183.475,408a79.849,79.849,0,0,1-21.336-2.907l-4.278,15.418A95.824,95.824,0,0,0,183.475,424a96.829,96.829,0,0,0,70.362-30.548l-11.672-10.943A80.77,80.77,0,0,1,183.475,408ZM340,272a12,12,0,1,0-12-12A12.013,12.013,0,0,0,340,272Zm36-136v16h16V136Zm24-40v16h16V96Z"/></g></svg>
