<?xml version="1.0" encoding="UTF-8"?>
<svg xmlns="http://www.w3.org/2000/svg" viewBox="0 0 512 512" width="512" height="512"><g id="Solid"><path d="M333.814,440.517l6.211,12.421q-9.26,4.671-18.873,8.564Q327.809,451.22,333.814,440.517Zm16.866-78.455A292.979,292.979,0,0,1,374.5,478.111a1.889,1.889,0,0,1-3.578.845L301.655,340.422l-14.31,7.156,11.217,22.436c-7.716-1.211-14.341-7.608-14.43-7.7l-11.289,11.339c.645.645,12.84,12.616,28.192,12.616a28.656,28.656,0,0,0,5.4-.52l18.641,37.282a370.8,370.8,0,0,1-29.415,47.256A251.556,251.556,0,0,1,226.43,480H208.31A121.8,121.8,0,0,1,86.5,358.19V296a8,8,0,0,0-8-8,48.063,48.063,0,0,1-47.878-44.564l2.221,2.221A8,8,0,0,0,38.5,248H68.61a20.931,20.931,0,0,1,18.735,11.578,8,8,0,0,0,14.311,0A20.825,20.825,0,0,1,120.39,248H158.5a8,8,0,0,0,5.657-2.343l2.221-2.221A48.063,48.063,0,0,1,118.5,288h-8a8,8,0,0,0-7.519,10.734l18.51,50.9A64.356,64.356,0,0,0,237.7,359.842L406.5,67.679V80h16V64H408.626l9.085-15.725A32.58,32.58,0,0,1,445.92,32a25.141,25.141,0,0,1,4.164.354L394.548,158.588c-.035.079-.069.158-.1.238l-27.269,61.951A7.988,7.988,0,0,0,366.5,224v47.788a370.01,370.01,0,0,1-9.288,64.9l-15.358-35.836-14.708,6.3ZM398.5,112h16V96h-16Zm-24,40h16V136h-16ZM252.337,393.452l-11.672-10.943A80.77,80.77,0,0,1,181.975,408a79.849,79.849,0,0,1-21.336-2.907l-4.278,15.418A95.824,95.824,0,0,0,181.975,424,96.829,96.829,0,0,0,252.337,393.452ZM326.5,260a12,12,0,1,0,12-12A12.013,12.013,0,0,0,326.5,260Zm69.864-65.813-13.864,31.5V272c0,.141,0,.281-.011.422a385.446,385.446,0,0,1-15.074,88.236q4.295,10.507,7.794,21.223A620.013,620.013,0,0,0,396.364,194.187Zm30.281,2.333a577.748,577.748,0,0,0-4.794-60.26l-11.784,26.784c2.829,25.087,11.3,129.976-26.882,248,.9,4.069,1.74,8.15,2.474,12.253q7.839-6.387,15.153-13.37l-.036-.01C424.736,321.212,428.068,244.909,426.645,196.52Zm37.6-156.611-8.426,19.152c9.3,34.168,15.2,87.281,15.811,142.85A809.73,809.73,0,0,1,466.5,304.728a251.237,251.237,0,0,0,12-76.8V79.42a62.7,62.7,0,0,0-12.451-37.362A24.89,24.89,0,0,0,464.24,39.909ZM433.6,109.56c1.461,6.764,7.561,37.537,9.024,85.948,1.337,44.235-1.209,111.234-19.193,189.667a254.1,254.1,0,0,0,17.052-24.128c20.091-82.573,18.768-205.226,4.576-277.532Z"/></g></svg>
