<svg xmlns="http://www.w3.org/2000/svg" data-name="Layer 1" viewBox="0 0 512 512"><path d="M157.085,270.0752l-4.78223-18.53857a4.47173,4.47173,0,0,1,3.209-5.44092l18.53906-4.78223a7.49986,7.49986,0,1,0-3.74609-14.52441l-18.53906,4.78223a19.46864,19.46864,0,0,0-13.98828,23.71191l4.78223,18.53906A7.50046,7.50046,0,0,0,157.085,270.0752Zm33.09082,78.84863-16.40625-9.87207a4.4647,4.4647,0,0,1-1.52246-6.12988l9.87109-16.40527a7.50031,7.50031,0,0,0-12.85352-7.7334l-9.87012,16.4043a19.46527,19.46527,0,0,0,6.6416,26.7168l16.40527,9.87207a7.50014,7.50014,0,0,0,7.73438-12.85254ZM218.958,236.4248a19.3411,19.3411,0,0,0-6.69141,13.312l-1.39746,19.0957a7.5006,7.5006,0,0,0,6.93262,8.02734c.18652.01367.37207.02051.55566.02051a7.50124,7.50124,0,0,0,7.47266-6.95312l1.39746-19.0957a4.46627,4.46627,0,0,1,4.7793-4.12842l19.0957,1.39746a7.5,7.5,0,1,0,1.0957-14.96l-19.0957-1.39746A19.32756,19.32756,0,0,0,218.958,236.4248ZM387.17188,9.59375h-.001C368.47949.75635,348.05859.3125,347.18066.29785a98.17735,98.17735,0,0,0-39.21,7.5.61813.61813,0,0,0-.06152.03119,116.50684,116.50684,0,0,0-58.905,6.15277,70.2478,70.2478,0,0,0-7.79224-11.34167A7.49744,7.49744,0,0,0,235.5,0h-60a7.5,7.5,0,0,0-3.55273,14.105c3.46191,1.8623,20.94824,12.24609,25.19336,33.84082a48.13924,48.13924,0,0,1-1.65381,24.69611l-.75146-.53644a12.48992,12.48992,0,0,0-19.4502,7.49121L171.76758,95.439l-16.3457-4.95459a12.513,12.513,0,0,0-16.05273,13.271l1.57422,15.56641-17.0127-.396a12.41871,12.41871,0,0,0-10.49023,5.28809,12.55,12.55,0,0,0-1.47656,11.72754l5.40039,14.16943-16.4668,3.27a12.55015,12.55015,0,0,0-8.05957,19.12646l8.251,12.76172L85.7666,191.18848a12.55946,12.55946,0,0,0-4.64844,20.25732l10.31348,11.08984-13.96973,8.021a12.56323,12.56323,0,0,0-1.5293,20.7334l11.92969,9.43359-12.50781,9.70459a12.56218,12.56218,0,0,0,1.33691,20.74658L89.916,298.93164l-10.96973,11.0835A12.55841,12.55841,0,0,0,82.957,330.40625L97.251,336.45557,87.9209,348.707a12.55362,12.55362,0,0,0,6.623,19.70605l15.18262,4.18408-7.48926,13.29248a12.54641,12.54641,0,0,0,9.27148,18.60693l15.89063,2.07275-5.36426,14.19092a12.5554,12.5554,0,0,0,1.499,11.71094,12.42056,12.42056,0,0,0,10.48047,5.27295l16.34668-.38037L147.54,452.26807a12.52125,12.52125,0,0,0,14.75781,14.63086l16.33789-3.31055.334,15.09375a12.50337,12.50337,0,0,0,17.52637,11.20166l15.55762-6.85547,4.38672,14.95361a12.487,12.487,0,0,0,19.8877,6.18408l13.252-10.82764,9.19141,13.27441A12.45661,12.45661,0,0,0,269.03613,512q.1377,0,.27539-.00293a12.46261,12.46261,0,0,0,10.29785-5.84131l8.958-14.22754,13.62207,9.7251a12.49059,12.49059,0,0,0,19.45117-7.49121l3.51758-15.8418,16.34473,4.95459a12.51293,12.51293,0,0,0,16.05273-13.27051l-1.57324-15.56689,17.05371.397a12.53547,12.53547,0,0,0,11.99121-16.95361l-5.70605-15.2124,16.624-3.30127a12.55089,12.55089,0,0,0,8.06055-19.127l-8.13672-12.58447,15.11719-5.83984a12.5597,12.5597,0,0,0,4.64844-20.25781l-10.16895-10.93457,13.78027-7.9126a12.56231,12.56231,0,0,0,1.5293-20.73242l-11.76172-9.30127,12.33691-9.57129a12.56238,12.56238,0,0,0-1.33789-20.74609l-13.03906-7.64844L417.791,263.78125a12.55844,12.55844,0,0,0-4.01172-20.39062l-14.09473-5.96484,9.20117-12.08154a12.55417,12.55417,0,0,0-6.625-19.70459l-14.97266-4.12646,7.38477-13.10547a12.54641,12.54641,0,0,0-9.27148-18.60693l-15.6748-2.04492,5.28906-13.9917a12.5554,12.5554,0,0,0-1.499-11.71094,12.42793,12.42793,0,0,0-10.48047-5.27295l-16.12793.37549,2.78125-14.69531a12.52061,12.52061,0,0,0-14.75684-14.63281l-16.49609,3.34229-.44434-16.17432a12.50273,12.50273,0,0,0-17.52441-11.1377l-15.5957,6.87256-4.3877-14.95508a12.48736,12.48736,0,0,0-19.8877-6.18213l-9.48047,7.746a68.00013,68.00013,0,0,0,3.771-49.548,101.75068,101.75068,0,0,1,48.99634-5.40057c2.26978,23.256,10.07861,39.85248,23.303,49.34222,9.74707,6.99463,19.61816,8.11426,26.82617,8.93213.82422.09375,1.624.18408,2.39551.28125,23.4834,2.9541,47.88867,15.84912,72.53809,38.32568a7.50049,7.50049,0,0,0,12.5498-5.78955C439.90137,65.22119,418.57813,24.44287,387.17188,9.59375Zm19.959,243.63525v.00049l-.00977.00928ZM196.64844,15h35.23145a55.27943,55.27943,0,0,1,10.97461,34.58252,52.66287,52.66287,0,0,1-4.03271,18.52887l-.66846-.96539a12.47937,12.47937,0,0,0-20.83691.457l-8.958,14.228-.24707-.17627a64.36725,64.36725,0,0,0,3.748-36.60156A62.69642,62.69642,0,0,0,196.64844,15Zm58.07324,78.76367,12.42871-10.15479,4.126,14.06445a12.49212,12.49212,0,0,0,17.02051,7.93994l14.80176-6.52295.42383,15.42578a12.51129,12.51129,0,0,0,14.97168,11.94678l15.77637-3.19629-2.665,14.08057a12.52856,12.52856,0,0,0,12.57227,14.87646l15.52148-.36133-5.0957,13.47949a12.5422,12.5422,0,0,0,10.07617,16.88281l15.14648,1.97607-7.13965,12.6709a12.55133,12.55133,0,0,0,7.57227,18.26367l14.50293,3.99707-8.91406,11.70605a12.55924,12.55924,0,0,0,5.0752,19.167l13.67188,5.78613-10.49121,10.6001a12.56308,12.56308,0,0,0,2.55957,19.6626l12.63965,7.41357-11.94922,9.271a12.56529,12.56529,0,0,0-.0918,19.769l11.377,8.99707-13.31641,7.647a12.56358,12.56358,0,0,0-2.93164,19.438l9.80371,10.542-14.55566,5.623a12.55725,12.55725,0,0,0-5.99414,18.52734l7.81152,12.08057-15.917,3.16113a12.54479,12.54479,0,0,0-9.27246,16.71826l5.44238,14.51074-16.2041-.377a12.52381,12.52381,0,0,0-12.72656,13.80322l1.48145,14.65088-15.34766-4.65186a12.49749,12.49749,0,0,0-15.81738,9.27881l-3.28125,14.78076-12.70605-9.07031a12.4763,12.4763,0,0,0-17.81836,3.52051l-8.34961,13.26123-8.57324-12.3833a12.53247,12.53247,0,0,0-8.52734-5.26514,12.31866,12.31866,0,0,0-1.72852-.12109,12.52381,12.52381,0,0,0-7.90723,2.81592l-12.42773,10.1543-4.127-14.064a12.49212,12.49212,0,0,0-17.02051-7.93994l-14.74414,6.49707-.31738-14.33936A12.51169,12.51169,0,0,0,178.59277,448.292L162.959,451.46l2.70508-14.2876A12.52856,12.52856,0,0,0,153.0918,422.2959l-15.74023.36621,5.1709-13.67871a12.542,12.542,0,0,0-10.07715-16.88281L117.084,390.09668l7.24414-12.85791a12.55193,12.55193,0,0,0-7.57227-18.26367l-14.71191-4.0542,9.04395-11.87793a12.55864,12.55864,0,0,0-5.0752-19.167L92.1416,318.00586l10.64551-10.75537a12.56269,12.56269,0,0,0-2.56055-19.66162l-12.8252-7.522,12.12207-9.40479a12.56607,12.56607,0,0,0,.09082-19.769l-11.5459-9.12939,13.50684-7.75586a12.5639,12.5639,0,0,0,2.93164-19.43848l-9.94824-10.69678,14.75879-5.70215a12.556,12.556,0,0,0,5.99609-18.52734l-7.92578-12.2583,15.77344-3.13232a12.546,12.546,0,0,0,9.25-16.78027l-5.13184-13.46436,16.1416.37549c.0957.002.19238.00342.28906.00342a12.52641,12.52641,0,0,0,12.4375-13.80713L154.666,105.9292l15.34668,4.65186a12.49765,12.49765,0,0,0,15.81738-9.27832l3.28223-14.78125,12.70508,9.07031a12.47671,12.47671,0,0,0,17.81836-3.52l8.34961-13.26123,8.57422,12.38428a12.47646,12.47646,0,0,0,18.16211,2.56885Zm103.55859-27.7002c-.83008-.10449-1.69043-.20215-2.57617-.30273-6.48926-.73633-13.19922-1.49756-19.77148-6.21436-8.49609-6.09686-13.98-16.99518-16.37646-32.46735l53.11963,24.7901a7.50011,7.50011,0,0,0,6.34375-13.59277L332.18237,16.41821a83.08232,83.08232,0,0,1,14.762-1.12231c.17773.00293,18.01563.38867,33.81543,7.8584,22.23633,10.51318,38.91016,38.78125,44.11816,73.08057C402.5791,78.95605,380.24023,68.82617,358.28027,66.06348ZM210.13086,154.168a7.5006,7.5006,0,0,0-6.93262-8.02734l-19.0957-1.39746a19.49676,19.49676,0,0,0-20.83594,17.99365L161.86914,181.832a7.5006,7.5006,0,0,0,6.93262,8.02734c.18652.01367.37207.02051.55566.02051a7.50124,7.50124,0,0,0,7.47266-6.95312l1.39746-19.09521a4.46627,4.46627,0,0,1,4.7793-4.12842l19.0957,1.39746A7.48632,7.48632,0,0,0,210.13086,154.168ZM312.167,311.87012a7.49995,7.49995,0,1,0-1.09375,14.96l19.09473,1.397a4.46473,4.46473,0,0,1,4.12793,4.78076L332.89941,352.103a7.50093,7.50093,0,0,0,6.93359,8.02686c.18652.01367.37109.02051.55469.02051a7.50167,7.50167,0,0,0,7.47266-6.95361l1.39648-19.09473a19.48858,19.48858,0,0,0-17.99414-20.835Zm-18.02734-74.06738a7.50041,7.50041,0,0,0,6.93359,8.02734l19.09473,1.397a4.46473,4.46473,0,0,1,4.12793,4.78076L322.89941,271.103a7.50093,7.50093,0,0,0,6.93359,8.02686c.18652.01367.37109.02051.55469.02051a7.50167,7.50167,0,0,0,7.47266-6.95361l1.39648-19.09473a19.48858,19.48858,0,0,0-17.99414-20.835l-19.0957-1.397A7.51731,7.51731,0,0,0,294.13965,237.80273Zm-33.06641-72.97266,19.09473,1.397a4.46473,4.46473,0,0,1,4.12793,4.78076L282.89941,190.103a7.50093,7.50093,0,0,0,6.93359,8.02686c.18652.01367.37109.02051.55469.02051a7.50167,7.50167,0,0,0,7.47266-6.95361l1.39648-19.09473a19.48858,19.48858,0,0,0-17.99414-20.835l-19.0957-1.397a7.49995,7.49995,0,1,0-1.09375,14.96Zm20.77051,178.45166a7.49984,7.49984,0,0,0,.77344-10.57861l-12.51367-14.48975a19.46644,19.46644,0,0,0-27.457-2.00928l-14.49023,12.51416a7.5002,7.5002,0,0,0,9.80469,11.35254l14.49023-12.51416a4.46552,4.46552,0,0,1,6.2998.46094l12.51465,14.49023a7.5001,7.5001,0,0,0,10.57813.77393Zm19.41895,40.98535-19.0957-1.397a7.49995,7.49995,0,1,0-1.09375,14.96l19.09473,1.397a4.46473,4.46473,0,0,1,4.12793,4.78076L302.89941,423.103a7.50093,7.50093,0,0,0,6.93359,8.02686c.18652.01367.37109.02051.55469.02051a7.50167,7.50167,0,0,0,7.47266-6.95361l1.39648-19.09473A19.48858,19.48858,0,0,0,301.2627,384.26709ZM237.29,411.44531l-19.04883,1.93213a4.46481,4.46481,0,0,1-4.89355-3.99316L211.415,390.33594a7.5002,7.5002,0,0,0-14.92383,1.51367l1.93262,19.04736a19.46958,19.46958,0,0,0,19.33105,17.50537,19.9633,19.9633,0,0,0,2-.10107l19.04883-1.93213A7.5002,7.5002,0,1,0,237.29,411.44531Z"/></svg>