<svg xmlns="http://www.w3.org/2000/svg" viewBox="0 0 64 64">
    <g data-name="Layer 3">
        <path fill="white" d="M36.6 51.176a2 2 0 0 0 2.817-.251l3.353-4.008a2 2 0 0 0 .375-1.878L41.832 40.83l2.057-3.9a2 2 0 0 0 0-1.867l-2.057-3.9 1.312-4.211a2 2 0 0 0-.376-1.878l-3.353-4.005a2 2 0 1 0-3.066 2.567L39 26.811l-1.233 3.963a2 2 0 0 0 .141 1.528L39.858 36l-1.951 3.7a2 2 0 0 0-.141 1.528L39 45.188l-2.652 3.171A2 2 0 0 0 36.6 51.176zM22.168 40.829l-1.312 4.212a2 2 0 0 0 .375 1.878l3.353 4.006a2 2 0 0 0 3.068-2.566L25 45.188l1.233-3.963a2 2 0 0 0-.141-1.528L24.142 36l1.951-3.7a2 2 0 0 0 .141-1.529L25 26.813l2.652-3.171a2 2 0 0 0-3.068-2.566l-3.353 4.008a2 2 0 0 0-.375 1.878l1.312 4.208-2.057 3.9a2 2 0 0 0 0 1.867z" />
        <path fill="white" d="M8.556,37.384,12.019,41,9.991,45.581a2,2,0,0,0,.972,2.615l4.555,2.163-.127,5.04a2,2,0,0,0,1.974,2.051l5.11.064,2.286,4.579a2,2,0,0,0,2.8.831L32,60.319l4.438,2.605a2,2,0,0,0,2.8-.831l2.286-4.579,5.11-.064A2,2,0,0,0,48.609,55.4l-.127-5.04L53.037,48.2a2,2,0,0,0,.972-2.615L51.981,41l3.463-3.613a2,2,0,0,0,0-2.768L51.981,31l2.027-4.584a2,2,0,0,0-.972-2.616l-4.555-2.162.127-5.041a2,2,0,0,0-1.974-2.05l-5.11-.064L39.239,9.907A1.969,1.969,0,0,0,37,8.862V4a2,2,0,0,0-2-2H29a2,2,0,0,0-2,2V8.862a1.969,1.969,0,0,0-2.239,1.045l-2.286,4.579-5.11.064a2,2,0,0,0-1.974,2.05l.127,5.041L10.963,23.8a2,2,0,0,0-.972,2.616L12.019,31,8.556,34.616A2,2,0,0,0,8.556,37.384ZM33,6v5.094l-1,.587-1-.587V6ZM16.219,30.611l-1.782-4.029L18.407,24.7a2,2,0,0,0,1.142-1.857l-.108-4.316,4.3-.054a2,2,0,0,0,1.764-1.107l1.874-3.753.6.353,0,0,3,1.76a2,2,0,0,0,2.023,0l3-1.76,0,0,.6-.353,1.874,3.753a2,2,0,0,0,1.764,1.107l4.3.054-.108,4.316A2,2,0,0,0,45.593,24.7l3.971,1.885-1.782,4.029a2,2,0,0,0,.385,2.193L51.229,36l-3.063,3.2a2,2,0,0,0-.385,2.192l1.782,4.029L45.593,47.3a2,2,0,0,0-1.142,1.857l.108,4.314-4.3.055a2,2,0,0,0-1.764,1.106l-1.874,3.755-3.6-2.116a2,2,0,0,0-2.025,0l-3.6,2.116-1.874-3.755a2,2,0,0,0-1.764-1.106l-4.3-.055.108-4.314A2,2,0,0,0,18.407,47.3l-3.971-1.886,1.782-4.029a2,2,0,0,0-.385-2.192L12.771,36l3.063-3.2A2,2,0,0,0,16.219,30.611Z" />
    </g>
</svg>