<svg xmlns="http://www.w3.org/2000/svg" width="24" height="24">
    <path d="M.492 12.672v-1.25c.012-.047.024-.09.028-.14.18-2.454 1.02-4.657 2.59-6.555C5.062 2.367 7.577.992 10.612.582c.262-.035.52-.059.778-.09h1.25c.046.012.093.024.14.028.883.054 1.746.214 2.594.472a11.536 11.536 0 0 1 8.14 9.918 11.357 11.357 0 0 1-1.1 6.149A11.52 11.52 0 0 1 7.93 22.812c-3.98-1.5-6.84-5.144-7.348-9.363-.031-.258-.059-.515-.09-.777Zm15.047-.438c.793-.199 1.293-.699 1.5-1.5.273-1.03-.004-1.84-.86-2.468-.452-.332-.956-.555-1.48-.739-.097-.039-.12-.082-.097-.175.09-.348.18-.696.265-1.047l.227-.907-1.258-.312-.508 2.023-1.02-.242.508-2.035-1.25-.312c-.02.054-.035.093-.043.136a152.06 152.06 0 0 0-.449 1.805c-.027.113-.062.133-.172.105-.437-.113-.875-.218-1.312-.328-.363-.09-.73-.18-1.102-.27l-.336 1.34c.114.028.215.047.317.079.273.074.558.133.82.238.3.121.426.43.348.742-.207.828-.41 1.656-.617 2.485-.254 1.02-.516 2.043-.766 3.066-.055.23-.305.445-.574.367-.309-.09-.625-.152-.946-.226l-.62 1.43 2.55.644-.523 2.105 1.25.313c.02-.07.03-.121.046-.172l.446-1.79c.02-.073.039-.12.125-.097.3.082.601.16.922.246l-.512 2.07 1.246.31c.016-.055.035-.095.043-.134.152-.605.305-1.21.45-1.82.027-.113.07-.152.183-.121.125.031.254.039.379.062.648.106 1.3.141 1.953.02.59-.105 1.094-.371 1.473-.852.406-.511.613-1.105.703-1.75.09-.66-.075-1.238-.559-1.703-.227-.218-.496-.39-.75-.586Zm-4.527-.039-.668 2.668c-.024.09.015.106.094.121.503.114 1.007.246 1.519.336.457.078.922.09 1.383-.02a1.177 1.177 0 0 0 .715-1.827c-.211-.286-.496-.48-.809-.637-.7-.344-1.46-.496-2.21-.672-.009.016-.02.024-.024.031Zm.96-1.136c.563.132 1.126.234 1.704.14.84-.136 1.09-.875.949-1.414-.098-.379-.379-.617-.707-.805-.578-.328-1.219-.453-1.852-.601-.097-.024-.113.039-.132.113-.079.324-.16.645-.243.969-.117.473-.23.945-.351 1.434.223.058.43.113.633.164Zm0 0" />
</svg>