<svg xmlns="http://www.w3.org/2000/svg" width="24" height="24">
    <path style="stroke:none;fill-rule:nonzero;fill:#000;fill-opacity:1" d="M13.105 10.102a82.965 82.965 0 0 0 3.16-1.18c-.093.371-.167.672-.245.973-.157.601-.317 1.207-.461 1.812-.032.145-.114.2-.227.246-.293.117-.59.23-.89.34-.598.219-1.196.434-1.797.64-.215.075-.34.176-.403.43-.238.992-.515 1.977-.773 2.965-.176.66-.34 1.32-.516 1.98-.058.223-.14.442-.23.727.601.016 1.144.008 1.683.008.563.004 1.121.004 1.684.004h8.34c-.164.59-.325 1.137-.47 1.687-.116.446-.214.895-.327 1.34-.094.375-.188.754-.293 1.125-.02.063-.106.13-.172.149-.086.023-.188.007-.285.007-5.996.004-11.996.004-17.996.004h-.375c.64-2.453 1.27-4.855 1.91-7.297-.492.043-.906.29-1.352.442-.449.156-.898.328-1.398.508.164-.578.308-1.094.453-1.61.105-.386.21-.77.309-1.156.035-.156.101-.226.265-.281.645-.215 1.281-.465 1.918-.703.125-.047.246-.086.367-.14.184-.075.286-.188.34-.407.278-1.16.578-2.309.88-3.461.226-.867.464-1.734.69-2.602.247-.941.477-1.89.731-2.832.207-.77.441-1.539.656-2.308.074-.258.13-.52.196-.785h7.093l-2.465 9.375Zm0 0" />
</svg>